<svg width="400" height="1031" viewBox="0 0 400 1031" fill="none" xmlns="http://www.w3.org/2000/svg">
<g opacity="0.16" clip-path="url(#clip0_6588_2027)">
<mask id="path-1-inside-1_6588_2027" fill="white">
<path fill-rule="evenodd" clip-rule="evenodd" d="M228.83 1014.9C230.078 1028.64 216.123 1036.57 209.194 1025.68C-24.4357 658.246 359.459 461.75 323.81 17.3673C322.579 2.06766 339.92 -5.63084 345.662 8.02534C520.119 422.62 188.388 569.507 228.838 1014.9"/>
</mask>
<path d="M209.194 1025.68L210.037 1025.14H210.037L209.194 1025.68ZM323.81 17.3673L324.806 17.2874L324.806 17.2871L323.81 17.3673ZM345.662 8.02534L344.74 8.41296L344.74 8.41319L345.662 8.02534ZM228.83 1014.9L227.834 1014.99C228.426 1021.51 225.41 1026.53 221.592 1028.65C219.686 1029.71 217.592 1030.06 215.606 1029.55C213.628 1029.05 211.655 1027.68 210.037 1025.14L209.194 1025.68L208.35 1026.21C210.197 1029.12 212.567 1030.85 215.115 1031.49C217.656 1032.14 220.272 1031.68 222.565 1030.4C227.145 1027.85 230.482 1022.03 229.826 1014.81L228.83 1014.9ZM209.194 1025.68L210.037 1025.14C151.727 933.435 131.981 852.457 134.553 775.643C137.125 698.796 162.035 626.039 193.183 550.761C255.455 400.262 342.655 239.777 324.806 17.2874L323.81 17.3673L322.813 17.4473C340.614 239.341 253.691 399.295 191.335 549.996C160.169 625.319 135.139 698.353 132.554 775.576C129.967 852.831 149.845 934.202 208.35 1026.21L209.194 1025.68ZM323.81 17.3673L324.806 17.2871C324.223 10.0391 328.034 4.70507 332.52 2.75496C334.76 1.78077 337.15 1.6537 339.282 2.50158C341.406 3.34588 343.39 5.20271 344.74 8.41296L345.662 8.02534L346.584 7.63773C345.062 4.01988 342.725 1.71796 340.021 0.643042C337.326 -0.428291 334.381 -0.235044 331.722 0.920823C326.409 3.23084 322.165 9.39592 322.813 17.4475L323.81 17.3673ZM345.662 8.02534L344.74 8.41319C388.298 111.928 400.244 198.687 394.322 277.548C388.398 356.427 364.597 427.462 336.57 499.55C280.525 643.709 207.592 792.012 227.843 1014.99L228.838 1014.9L229.834 1014.81C209.634 792.391 282.341 644.557 338.435 500.275C366.477 428.144 390.37 356.883 396.316 277.698C402.264 198.495 390.254 111.42 346.584 7.63749L345.662 8.02534Z" fill="white" mask="url(#path-1-inside-1_6588_2027)"/>
<path d="M152.499 246.064C154.923 245.124 157.458 245.081 159.658 246.092C161.853 247.101 163.779 249.188 164.935 252.635C199.667 356.154 177.138 429.909 147.226 506.218C117.311 582.537 79.9886 661.442 85.3983 775.068C85.7198 781.8 82.4379 786.962 78.3846 789.07C76.3609 790.122 74.1525 790.413 72.0829 789.786C70.1451 789.198 68.2795 787.79 66.7811 785.346L66.4872 784.844C39.9988 737.562 31.5487 695.181 33.7577 654.717C35.9674 614.24 48.844 575.652 65.0604 535.951C97.4809 456.579 143.262 372.771 143.302 260.899L143.314 260.203C143.574 253.075 147.796 247.888 152.499 246.064Z" stroke="white"/>
</g>
<defs>
<clipPath id="clip0_6588_2027">
<rect width="400" height="1029.84" fill="white" transform="translate(0 0.9375)"/>
</clipPath>
</defs>
</svg>
