<svg width="16" height="17" viewBox="0 0 16 17" fill="none" xmlns="http://www.w3.org/2000/svg">
<rect y="0.5" width="16" height="16" rx="8" fill="#3DDD33"/>
<path d="M11.8748 7.89363C11.7946 7.95694 11.6858 7.99249 11.5723 7.99249C11.4589 7.99249 11.3501 7.95694 11.2699 7.89363L8.43345 5.65355V12.162C8.43345 12.2516 8.38836 12.3376 8.30808 12.401C8.22781 12.4644 8.11894 12.5 8.00542 12.5C7.8919 12.5 7.78303 12.4644 7.70276 12.401C7.62249 12.3376 7.57739 12.2516 7.57739 12.162V5.65355L4.74097 7.89363C4.68865 7.93813 4.62211 7.97066 4.54834 7.98779C4.47458 8.00493 4.39633 8.00603 4.32184 7.99099C4.24735 7.97595 4.17937 7.94531 4.12508 7.90232C4.07078 7.85933 4.03217 7.80557 4.01332 7.7467C3.99431 7.68793 3.99567 7.62621 4.01726 7.568C4.03885 7.50979 4.07987 7.45725 4.13602 7.41587L7.70295 4.59886C7.7832 4.53556 7.89199 4.5 8.00542 4.5C8.11885 4.5 8.22764 4.53556 8.3079 4.59886L11.8748 7.41587C11.955 7.47925 12 7.56517 12 7.65475C12 7.74433 11.955 7.83025 11.8748 7.89363Z" fill="#3B3B3B"/>
</svg>
