<svg width="16" height="16" viewBox="0 0 16 16" fill="none" xmlns="http://www.w3.org/2000/svg">
<g clip-path="url(#clip0_6588_11153)">
<path fill-rule="evenodd" clip-rule="evenodd" d="M7.20998 1.77773C4.20982 1.77773 1.77771 4.20988 1.77771 7.2101C1.77771 10.2103 4.20982 12.6425 7.20998 12.6425C10.2101 12.6425 12.6422 10.2103 12.6422 7.2101C12.6422 4.20988 10.2101 1.77773 7.20998 1.77773ZM-0.00012207 7.2101C-0.00012207 3.22799 3.22795 -0.000137329 7.20998 -0.000137329C11.192 -0.000137329 14.4201 3.22799 14.4201 7.2101C14.4201 11.1922 11.192 14.4203 7.20998 14.4203C3.22795 14.4203 -0.00012207 11.1922 -0.00012207 7.2101Z" fill="#F7F7F7"/>
<path fill-rule="evenodd" clip-rule="evenodd" d="M11.0848 11.0849C11.432 10.7378 11.9948 10.7378 12.3419 11.0849L15.7396 14.4826C16.0867 14.8298 16.0867 15.3926 15.7396 15.7398C15.3924 16.0869 14.8296 16.0869 14.4825 15.7398L11.0848 12.3421C10.7377 11.9949 10.7377 11.4321 11.0848 11.0849Z" fill="#F7F7F7"/>
</g>
<defs>
<clipPath id="clip0_6588_11153">
<rect width="16" height="16" fill="white"/>
</clipPath>
</defs>
</svg>
