<svg width="16" height="16" viewBox="0 0 16 16" fill="none" xmlns="http://www.w3.org/2000/svg">
<path d="M8.00004 14.6667C7.07782 14.6667 6.21115 14.4916 5.40004 14.1413C4.58893 13.7911 3.88337 13.3162 3.28337 12.7167C2.68337 12.1171 2.20849 11.4116 1.85871 10.6C1.50893 9.78845 1.33382 8.92178 1.33337 8C1.33293 7.07823 1.50804 6.21156 1.85871 5.4C2.20937 4.58845 2.68426 3.88289 3.28337 3.28334C3.88249 2.68378 4.58804 2.20889 5.40004 1.85867C6.21204 1.50845 7.07871 1.33334 8.00004 1.33334C8.92137 1.33334 9.78804 1.50845 10.6 1.85867C11.412 2.20889 12.1176 2.68378 12.7167 3.28334C13.3158 3.88289 13.7909 4.58845 14.142 5.4C14.4932 6.21156 14.668 7.07823 14.6667 8C14.6654 8.92178 14.4903 9.78845 14.1414 10.6C13.7925 11.4116 13.3176 12.1171 12.7167 12.7167C12.1158 13.3162 11.4103 13.7913 10.6 14.142C9.78982 14.4927 8.92315 14.6676 8.00004 14.6667ZM8.66671 13.2833C9.98893 13.1167 11.0974 12.536 11.992 11.5413C12.8867 10.5467 13.3338 9.36623 13.3334 8C13.3329 6.63378 12.8856 5.45334 11.9914 4.45867C11.0972 3.464 9.98893 2.88334 8.66671 2.71667V13.2833Z" fill="#FCFCFC"/>
</svg>
