<svg width="16" height="16" viewBox="0 0 16 16" fill="none" xmlns="http://www.w3.org/2000/svg">
<g clip-path="url(#clip0_4570_887)">
<path fill-rule="evenodd" clip-rule="evenodd" d="M7.2101 1.77773C4.20994 1.77773 1.77783 4.20988 1.77783 7.2101C1.77783 10.2103 4.20994 12.6425 7.2101 12.6425C10.2103 12.6425 12.6424 10.2103 12.6424 7.2101C12.6424 4.20988 10.2103 1.77773 7.2101 1.77773ZM0 7.2101C0 3.22799 3.22807 -0.000137329 7.2101 -0.000137329C11.1921 -0.000137329 14.4202 3.22799 14.4202 7.2101C14.4202 11.1922 11.1921 14.4203 7.2101 14.4203C3.22807 14.4203 0 11.1922 0 7.2101Z" fill="#F7F7F7"/>
<path fill-rule="evenodd" clip-rule="evenodd" d="M11.0848 11.0849C11.432 10.7378 11.9948 10.7378 12.3419 11.0849L15.7396 14.4826C16.0867 14.8298 16.0867 15.3926 15.7396 15.7398C15.3924 16.0869 14.8296 16.0869 14.4825 15.7398L11.0848 12.3421C10.7377 11.9949 10.7377 11.4321 11.0848 11.0849Z" fill="#F7F7F7"/>
</g>
<defs>
<clipPath id="clip0_4570_887">
<rect width="16" height="16" fill="white"/>
</clipPath>
</defs>
</svg>
