<svg width="40" height="40" viewBox="0 0 40 40" fill="none" xmlns="http://www.w3.org/2000/svg">
<rect y="0.333252" width="40" height="39.3333" rx="19.6667" fill="#F2F2F2"/>
<path d="M11.7956 27.6666C11.2837 27.6666 10.8567 27.4979 10.5144 27.1606C10.1722 26.8233 10.0007 26.402 10 25.8967V14.1032C10 13.5986 10.1715 13.1777 10.5144 12.8403C10.8574 12.503 11.2841 12.334 11.7944 12.3333H28.2056C28.7167 12.3333 29.1433 12.5023 29.4856 12.8403C29.8278 13.1784 29.9993 13.5993 30 14.1032V25.8978C30 26.4016 29.8285 26.8225 29.4856 27.1606C29.1426 27.4986 28.7159 27.6673 28.2056 27.6666H11.7956ZM20 20.127L11.1111 14.3978V25.8978C11.1111 26.0942 11.1752 26.2556 11.3033 26.3819C11.4315 26.5082 11.5956 26.5713 11.7956 26.5713H28.2056C28.4048 26.5713 28.5685 26.5082 28.6967 26.3819C28.8248 26.2556 28.8889 26.0938 28.8889 25.8967V14.3967L20 20.127ZM20 18.9047L28.5467 13.4285H11.4533L20 18.9047ZM11.1111 14.3978V13.4285V25.8978C11.1111 26.0942 11.1752 26.2556 11.3033 26.3819C11.4315 26.5082 11.5956 26.5713 11.7956 26.5713H11.1111V14.3978Z" fill="#D96F09"/>
</svg>
