<svg width="40" height="40" viewBox="0 0 40 40" fill="none" xmlns="http://www.w3.org/2000/svg">
<rect width="40" height="39.3333" rx="19.6667" fill="#F2F2F2"/>
<path d="M11.7956 27.3333C11.2837 27.3333 10.8567 27.1647 10.5144 26.8273C10.1722 26.49 10.0007 26.0687 10 25.5634V13.7699C10 13.2654 10.1715 12.8444 10.5144 12.5071C10.8574 12.1698 11.2841 12.0007 11.7944 12H28.2056C28.7167 12 29.1433 12.169 29.4856 12.5071C29.8278 12.8452 29.9993 13.2661 30 13.7699V25.5645C30 26.0683 29.8285 26.4893 29.4856 26.8273C29.1426 27.1654 28.7159 27.3341 28.2056 27.3333H11.7956ZM20 19.7937L11.1111 14.0645V25.5645C11.1111 25.7609 11.1752 25.9223 11.3033 26.0486C11.4315 26.1749 11.5956 26.2381 11.7956 26.2381H28.2056C28.4048 26.2381 28.5685 26.1749 28.6967 26.0486C28.8248 25.9223 28.8889 25.7606 28.8889 25.5634V14.0634L20 19.7937ZM20 18.5714L28.5467 13.0952H11.4533L20 18.5714ZM11.1111 14.0645V13.0952V25.5645C11.1111 25.7609 11.1752 25.9223 11.3033 26.0486C11.4315 26.1749 11.5956 26.2381 11.7956 26.2381H11.1111V14.0645Z" fill="#6E6E6E"/>
</svg>
