<svg width="16" height="12" viewBox="0 0 16 12" fill="none" xmlns="http://www.w3.org/2000/svg">
<path d="M15.664 2.13564C15.5713 1.80337 15.3943 1.50071 15.1501 1.25707C14.906 1.01342 14.6029 0.837066 14.2705 0.745137C13.023 0.411637 8.00796 0.411637 8.00796 0.411637C8.00796 0.411637 3.00246 0.403637 1.74196 0.745137C1.41005 0.837516 1.10763 1.01407 0.864013 1.25769C0.620395 1.50131 0.443841 1.80373 0.351462 2.13564C0.114637 3.41276 -0.00203894 4.70925 0.00296177 6.00814C0.000264141 7.30079 0.116926 8.59093 0.351462 9.86214C0.444274 10.1942 0.620925 10.4967 0.864438 10.7408C1.10795 10.9848 1.41014 11.1621 1.74196 11.2556C2.98946 11.5891 8.00796 11.5891 8.00796 11.5891C8.00796 11.5891 13.0105 11.5891 14.2705 11.2556C14.6028 11.1626 14.9056 10.9855 15.1497 10.7414C15.3938 10.4973 15.5709 10.1945 15.664 9.86214C15.8935 8.59164 16.0055 7.29964 15.9975 6.00814C16.0055 4.70814 15.896 3.41414 15.664 2.13564ZM6.40596 8.40164V3.60414L10.5805 6.00814L6.40596 8.40164Z" fill="#F7F7F7"/>
</svg>
