<svg width="92" height="69" viewBox="0 0 92 69" fill="none" xmlns="http://www.w3.org/2000/svg">
<path d="M87.7563 27.3613V27.7736H86.9272V30.2518H86.3332V27.7736H85.5041V27.3613H87.7563Z" fill="#646464"/>
<path d="M91.2 27.3613V30.2518H90.6875V28.2901L89.8699 30.2518H89.563L88.6442 28.2901V30.2518H88.1317V27.3613H88.6442L89.6659 29.6326L90.6875 27.3613H91.2Z" fill="#646464"/>
<path d="M0.605497 63.5403H0V67.021H0.605497V63.5403Z" fill="#646464"/>
<path d="M3.24617 64.2173C3.47629 64.2173 3.68193 64.2622 3.86146 64.352C4.04589 64.4418 4.18788 64.575 4.2907 64.753C4.39352 64.9295 4.44411 65.1428 4.44411 65.3946V67.0228H3.84514V65.4797C3.84514 65.2326 3.77986 65.0434 3.64929 64.9134C3.51873 64.7803 3.3392 64.7129 3.11397 64.7129C2.88875 64.7129 2.70759 64.7803 2.57213 64.9134C2.44156 65.0434 2.37628 65.2326 2.37628 65.4797V67.0228H1.77078V64.2638H2.37628V64.5798C2.47584 64.4659 2.60151 64.3777 2.75329 64.3151C2.90833 64.2526 3.07317 64.2205 3.24617 64.2205" fill="#646464"/>
<path d="M6.29326 64.7275V66.2545C6.29326 66.3572 6.31774 66.4326 6.3667 66.4791C6.41893 66.5224 6.50869 66.5449 6.63273 66.5449H7.00484V67.0213H6.52665C6.25409 67.0213 6.04519 66.9603 5.89993 66.8416C5.75468 66.7213 5.68287 66.5256 5.68287 66.2561V64.7291H5.3385V64.2639H5.68287V63.5774H6.29326V64.2639H7.00484V64.7291H6.29326V64.7275Z" fill="#646464"/>
<path d="M9.98173 65.393C9.97847 65.1829 9.8985 65.0145 9.74345 64.8877C9.5884 64.761 9.39419 64.6969 9.1657 64.6969C8.95679 64.6969 8.7789 64.761 8.63038 64.8877C8.48186 65.0112 8.39373 65.1797 8.36598 65.393H9.985H9.98173ZM10.6117 65.5743C10.6117 65.6785 10.6052 65.7716 10.5905 65.855H8.35619C8.37414 66.0747 8.46064 66.2528 8.61569 66.3859C8.77074 66.519 8.96169 66.5864 9.18855 66.5864C9.51333 66.5864 9.74345 66.4581 9.87891 66.2014H10.5317C10.4436 66.4549 10.282 66.6634 10.0486 66.827C9.81852 66.9874 9.53291 67.0676 9.18855 67.0676C8.90946 67.0676 8.65812 67.0083 8.43453 66.8928C8.21583 66.7725 8.0412 66.6057 7.9139 66.3923C7.78986 66.1758 7.72784 65.9255 7.72784 65.6416C7.72784 65.3577 7.78823 65.1091 7.90737 64.8958C8.03141 64.6792 8.20278 64.5124 8.42147 64.3953C8.64343 64.2782 8.89967 64.2205 9.18528 64.2205C9.47089 64.2205 9.70754 64.2766 9.92298 64.3905C10.1384 64.5044 10.3065 64.6648 10.4273 64.8717C10.5481 65.0754 10.6084 65.3112 10.6084 65.5775" fill="#646464"/>
<path d="M12.1834 64.6632C12.2715 64.5237 12.389 64.4146 12.5343 64.3376C12.6828 64.2574 12.8574 64.2173 13.0598 64.2173V64.8076H12.9064C12.6698 64.8076 12.4886 64.8637 12.3646 64.9776C12.2438 65.0915 12.185 65.2872 12.185 65.5679V67.0195H11.5795V64.2606H12.185V64.6616L12.1834 64.6632Z" fill="#646464"/>
<path d="M15.4622 64.2173C15.6923 64.2173 15.898 64.2622 16.0775 64.352C16.2619 64.4418 16.4039 64.575 16.5067 64.753C16.6096 64.9295 16.6601 65.1428 16.6601 65.3946V67.0228H16.0612V65.4797C16.0612 65.2326 15.9959 65.0434 15.8653 64.9134C15.7348 64.7803 15.5552 64.7129 15.33 64.7129C15.1048 64.7129 14.9236 64.7803 14.7882 64.9134C14.6576 65.0434 14.5923 65.2326 14.5923 65.4797V67.0228H13.9868V64.2638H14.5923V64.5798C14.6919 64.4659 14.8175 64.3777 14.9693 64.3151C15.1244 64.2526 15.2892 64.2205 15.4622 64.2205" fill="#646464"/>
<path d="M19.9945 65.6385C19.9945 65.4476 19.952 65.2824 19.8672 65.1428C19.7856 65.0033 19.6778 64.8958 19.544 64.822C19.4102 64.7482 19.2649 64.7113 19.1083 64.7113C18.9516 64.7113 18.808 64.7482 18.6725 64.822C18.5387 64.8926 18.4277 64.9969 18.3428 65.138C18.2612 65.2743 18.2204 65.438 18.2204 65.6288C18.2204 65.8197 18.2612 65.9865 18.3428 66.1293C18.4277 66.2737 18.537 66.3827 18.6725 66.4597C18.8112 66.5335 18.9548 66.5704 19.1083 66.5704C19.2617 66.5704 19.4086 66.5335 19.544 66.4597C19.6778 66.3859 19.7856 66.2801 19.8672 66.1389C19.952 65.9962 19.9945 65.8293 19.9945 65.6385ZM17.6019 65.6288C17.6019 65.3513 17.6622 65.1059 17.7814 64.8926C17.9054 64.6793 18.0719 64.514 18.2808 64.3969C18.493 64.2766 18.7263 64.2173 18.981 64.2173C19.2111 64.2173 19.4102 64.2606 19.5799 64.3472C19.7529 64.4306 19.8916 64.5365 19.9945 64.6632V64.2622H20.6049V67.0211H19.9945V66.6105C19.8916 66.7404 19.7513 66.8495 19.575 66.9361C19.3988 67.0227 19.1964 67.0661 18.9695 67.0661C18.7182 67.0661 18.4881 67.0067 18.2792 66.8864C18.0703 66.7629 17.9038 66.5929 17.7797 66.3763C17.659 66.1566 17.6002 65.9079 17.6002 65.6304" fill="#646464"/>
<path d="M22.4769 64.7275V66.2545C22.4769 66.3572 22.5013 66.4326 22.5503 66.4791C22.6025 66.5224 22.6923 66.5449 22.8163 66.5449H23.1884V67.0213H22.7102C22.4377 67.0213 22.2288 66.9603 22.0835 66.8416C21.9383 66.7213 21.8665 66.5256 21.8665 66.2561V64.7291H21.5221V64.2639H21.8665V63.5774H22.4769V64.2639H23.1884V64.7291H22.4769V64.7275Z" fill="#646464"/>
<path d="M24.7209 67.0211H24.1154V64.2622H24.7209V67.0211ZM24.4239 63.8965C24.3146 63.8965 24.2215 63.8612 24.1481 63.7906C24.073 63.72 24.0371 63.6334 24.0371 63.5308C24.0371 63.4281 24.0746 63.3399 24.1481 63.2709C24.2215 63.2003 24.3146 63.165 24.4239 63.165C24.5333 63.165 24.6198 63.2003 24.6948 63.2709C24.7683 63.3415 24.8058 63.4281 24.8058 63.5308C24.8058 63.6334 24.7683 63.7216 24.6948 63.7906C24.6198 63.8612 24.53 63.8965 24.4239 63.8965Z" fill="#646464"/>
<path d="M27.156 66.5705C27.311 66.5705 27.4563 66.5352 27.5917 66.4647C27.7305 66.3941 27.8415 66.2898 27.9263 66.1487C28.0112 66.0091 28.0536 65.8391 28.0536 65.6386C28.0536 65.4381 28.0128 65.2696 27.9312 65.1333C27.8496 64.9937 27.7419 64.8879 27.6081 64.8173C27.4742 64.7467 27.329 64.713 27.1723 64.713C27.0156 64.713 26.872 64.7483 26.7365 64.8173C26.606 64.8879 26.5015 64.9921 26.4232 65.1333C26.3448 65.2696 26.3057 65.4381 26.3057 65.6386C26.3057 65.9353 26.3856 66.1663 26.544 66.3299C26.7072 66.4903 26.9095 66.5705 27.1544 66.5705M27.156 67.0662C26.8802 67.0662 26.6305 67.0084 26.4085 66.8913C26.1865 66.771 26.0103 66.6042 25.883 66.3909C25.7557 66.1743 25.692 65.9241 25.692 65.6402C25.692 65.3563 25.7573 65.1108 25.8879 64.8943C26.0184 64.6777 26.198 64.5109 26.4232 64.3938C26.65 64.2767 26.903 64.219 27.1821 64.219C27.4612 64.219 27.7141 64.2783 27.941 64.3938C28.1679 64.5109 28.3458 64.6777 28.4763 64.8943C28.6069 65.1108 28.6722 65.3595 28.6722 65.6402C28.6722 65.9209 28.6053 66.1695 28.4714 66.3861C28.3376 66.6026 28.1532 66.771 27.9198 66.8913C27.6897 67.0084 27.4351 67.0662 27.156 67.0662Z" fill="#646464"/>
<path d="M31.117 64.2173C31.3471 64.2173 31.5528 64.2622 31.7323 64.352C31.9167 64.4418 32.0587 64.575 32.1615 64.753C32.2644 64.9295 32.315 65.1428 32.315 65.3946V67.0228H31.716V65.4797C31.716 65.2326 31.6507 65.0434 31.5201 64.9134C31.3896 64.7803 31.2101 64.7129 30.9848 64.7129C30.7596 64.7129 30.5784 64.7803 30.443 64.9134C30.3124 65.0434 30.2471 65.2326 30.2471 65.4797V67.0228H29.6416V64.2638H30.2471V64.5798C30.3467 64.4659 30.4724 64.3777 30.6241 64.3151C30.7792 64.2526 30.944 64.2205 31.117 64.2205" fill="#646464"/>
<path d="M35.6509 65.6385C35.6509 65.4476 35.6085 65.2824 35.5236 65.1428C35.442 65.0033 35.3343 64.8958 35.2004 64.822C35.0666 64.7482 34.9214 64.7113 34.7647 64.7113C34.608 64.7113 34.4644 64.7482 34.3289 64.822C34.1951 64.8926 34.0857 64.9969 33.9992 65.138C33.9176 65.2743 33.8768 65.438 33.8768 65.6288C33.8768 65.8197 33.9176 65.9865 33.9992 66.1293C34.0841 66.2737 34.1935 66.3827 34.3289 66.4597C34.4676 66.5335 34.6113 66.5704 34.7647 66.5704C34.9181 66.5704 35.065 66.5335 35.2004 66.4597C35.3343 66.3859 35.442 66.2801 35.5236 66.1389C35.6085 65.9962 35.6509 65.8293 35.6509 65.6385ZM33.2583 65.6288C33.2583 65.3513 33.3187 65.1059 33.4378 64.8926C33.5618 64.6793 33.7283 64.514 33.9372 64.3969C34.1494 64.2766 34.3828 64.2173 34.6374 64.2173C34.8675 64.2173 35.0666 64.2606 35.2363 64.3472C35.4093 64.4306 35.5481 64.5365 35.6509 64.6632V64.2622H36.2613V67.0211H35.6509V66.6105C35.5481 66.7404 35.4093 66.8495 35.2315 66.9361C35.0552 67.0227 34.8528 67.0661 34.626 67.0661C34.3746 67.0661 34.1445 67.0067 33.9356 66.8864C33.7267 66.7629 33.5602 66.5929 33.4362 66.3763C33.3154 66.1566 33.2567 65.9079 33.2567 65.6304" fill="#646464"/>
<path d="M38.0321 63.3159H37.4266V67.0212H38.0321V63.3159Z" fill="#646464"/>
<path d="M44.8313 63.5403V67.021H44.2258V64.6374L43.1013 67.021H42.6818L41.5508 64.6374V67.021H40.947V63.5403H41.5998L42.894 66.2704L44.1834 63.5403H44.8313Z" fill="#646464"/>
<path d="M48.0448 65.393C48.0416 65.1829 47.9616 65.0145 47.8066 64.8877C47.6515 64.761 47.4589 64.6969 47.2288 64.6969C47.0199 64.6969 46.842 64.761 46.6935 64.8877C46.545 65.0112 46.4568 65.1797 46.4291 65.393H48.0481H48.0448ZM48.6764 65.5743C48.6764 65.6785 48.6699 65.7716 48.6552 65.855H46.4209C46.4389 66.0747 46.5254 66.2528 46.6804 66.3859C46.8355 66.519 47.0264 66.5864 47.2533 66.5864C47.5781 66.5864 47.8082 66.4581 47.9436 66.2014H48.5965C48.5083 66.4549 48.3468 66.6634 48.1134 66.827C47.8833 66.9874 47.5976 67.0676 47.2533 67.0676C46.9742 67.0676 46.7229 67.0083 46.4993 66.8928C46.2806 66.7725 46.1059 66.6057 45.9786 66.3923C45.8546 66.1758 45.7926 65.9255 45.7926 65.6416C45.7926 65.3577 45.853 65.1091 45.9737 64.8958C46.0978 64.6792 46.2691 64.5124 46.4878 64.3953C46.7098 64.2782 46.966 64.2205 47.2516 64.2205C47.5373 64.2205 47.7739 64.2766 47.9893 64.3905C48.2048 64.5044 48.3729 64.6648 48.4937 64.8717C48.6144 65.0754 48.6748 65.3112 48.6748 65.5775" fill="#646464"/>
<path d="M51.8345 65.6385C51.8345 65.4476 51.7921 65.2824 51.7072 65.1428C51.6256 65.0033 51.5179 64.8958 51.384 64.822C51.2502 64.7482 51.105 64.7113 50.9483 64.7113C50.7916 64.7113 50.648 64.7482 50.5125 64.822C50.3787 64.8926 50.2677 64.9969 50.1828 65.138C50.1012 65.2743 50.0604 65.438 50.0604 65.6288C50.0604 65.8197 50.1012 65.9865 50.1828 66.1293C50.2677 66.2737 50.3771 66.3827 50.5125 66.4597C50.6512 66.5335 50.7949 66.5704 50.9483 66.5704C51.1017 66.5704 51.2486 66.5335 51.384 66.4597C51.5179 66.3859 51.6256 66.2801 51.7072 66.1389C51.7921 65.9962 51.8345 65.8293 51.8345 65.6385ZM49.4419 65.6288C49.4419 65.3513 49.5023 65.1059 49.6214 64.8926C49.7454 64.6793 49.9119 64.514 50.1208 64.3969C50.333 64.2766 50.5664 64.2173 50.821 64.2173C51.0511 64.2173 51.2502 64.2606 51.4199 64.3472C51.5929 64.4306 51.7317 64.5365 51.8345 64.6632V64.2622H52.4449V67.0211H51.8345V66.6105C51.7317 66.7404 51.5913 66.8495 51.4151 66.9361C51.2388 67.0227 51.0364 67.0661 50.8096 67.0661C50.5582 67.0661 50.3281 67.0067 50.1192 66.8864C49.9103 66.7629 49.7438 66.5929 49.6198 66.3763C49.499 66.1566 49.4402 65.9079 49.4402 65.6304" fill="#646464"/>
<path d="M54.2157 63.3159H53.6102V67.0212H54.2157V63.3159Z" fill="#646464"/>
<path d="M56.9282 65.2726C56.9282 64.9326 57.0114 64.6262 57.1779 64.3567C57.3476 64.0857 57.5761 63.8755 57.8617 63.7263C58.1522 63.5724 58.4689 63.4954 58.8116 63.4954C59.2049 63.4954 59.5526 63.5868 59.8561 63.7713C60.1646 63.9509 60.3865 64.2092 60.5253 64.5428H59.799C59.7027 64.3599 59.5705 64.222 59.4008 64.1322C59.231 64.0423 59.0352 63.9974 58.8116 63.9974C58.5668 63.9974 58.3497 64.0488 58.1588 64.153C57.9678 64.2573 57.8177 64.4049 57.7083 64.5989C57.6022 64.793 57.55 65.0176 57.55 65.2742C57.55 65.5309 57.6022 65.7571 57.7083 65.9495C57.8177 66.1436 57.9678 66.2928 58.1588 66.4003C58.3497 66.5045 58.5668 66.5559 58.8116 66.5559C59.0336 66.5559 59.231 66.511 59.4008 66.4211C59.5705 66.3313 59.7027 66.195 59.799 66.0105H60.5253C60.3865 66.3441 60.1646 66.6008 59.8561 66.782C59.5526 66.9617 59.2033 67.0531 58.8116 67.0531C58.4656 67.0531 58.149 66.9777 57.8617 66.8286C57.5745 66.6746 57.3476 66.4628 57.1779 66.1934C57.0114 65.9223 56.9282 65.6175 56.9282 65.2774" fill="#646464"/>
<path d="M62.8738 66.5705C63.0289 66.5705 63.1741 66.5352 63.3096 66.4647C63.4483 66.3941 63.5593 66.2898 63.6442 66.1487C63.729 66.0091 63.7715 65.8391 63.7715 65.6386C63.7715 65.4381 63.7307 65.2696 63.649 65.1333C63.5674 64.9937 63.4597 64.8879 63.3259 64.8173C63.1921 64.7467 63.0468 64.713 62.8901 64.713C62.7335 64.713 62.5898 64.7483 62.4544 64.8173C62.3238 64.8879 62.2194 64.9921 62.141 65.1333C62.0627 65.2696 62.0235 65.4381 62.0235 65.6386C62.0235 65.9353 62.1035 66.1663 62.2618 66.3299C62.425 66.4903 62.6274 66.5705 62.8722 66.5705M62.8738 67.0662C62.598 67.0662 62.3483 67.0084 62.1263 66.8913C61.9044 66.771 61.7281 66.6042 61.6008 66.3909C61.4735 66.1743 61.4099 65.9241 61.4099 65.6402C61.4099 65.3563 61.4751 65.1108 61.6057 64.8943C61.7363 64.6777 61.9158 64.5109 62.141 64.3938C62.3679 64.2767 62.6208 64.219 62.8999 64.219C63.179 64.219 63.432 64.2783 63.6588 64.3938C63.8857 64.5109 64.0636 64.6777 64.1942 64.8943C64.3247 65.1108 64.39 65.3595 64.39 65.6402C64.39 65.9209 64.3231 66.1695 64.1893 66.3861C64.0554 66.6026 63.871 66.771 63.6376 66.8913C63.4075 67.0084 63.1529 67.0662 62.8738 67.0662Z" fill="#646464"/>
<path d="M68.8994 64.2173C69.1295 64.2173 69.3352 64.2622 69.5147 64.352C69.6991 64.4418 69.8411 64.575 69.9439 64.753C70.05 64.9295 70.1022 65.1428 70.1022 65.3946V67.0228H69.5033V65.4797C69.5033 65.2326 69.438 65.0434 69.3074 64.9134C69.1769 64.7803 68.9973 64.7129 68.7721 64.7129C68.5469 64.7129 68.3657 64.7803 68.2303 64.9134C68.0997 65.0434 68.0344 65.2326 68.0344 65.4797V67.0228H67.4354V65.4797C67.4354 65.2326 67.3702 65.0434 67.2396 64.9134C67.109 64.7803 66.9295 64.7129 66.7043 64.7129C66.479 64.7129 66.2979 64.7803 66.1624 64.9134C66.0319 65.0434 65.9666 65.2326 65.9666 65.4797V67.0228H65.3611V64.2638H65.9666V64.5798C66.0661 64.4659 66.1918 64.3777 66.3436 64.3151C66.4954 64.2526 66.6586 64.2205 66.8316 64.2205C67.065 64.2205 67.2739 64.267 67.4583 64.3617C67.6427 64.4547 67.7831 64.591 67.8826 64.7675C67.9708 64.6007 68.1095 64.4691 68.2972 64.3713C68.4849 64.2718 68.6872 64.2205 68.9027 64.2205" fill="#646464"/>
<path d="M73.6275 65.6288C73.6275 65.438 73.5851 65.2744 73.5002 65.138C73.4186 64.9985 73.3093 64.8926 73.1705 64.822C73.0367 64.7482 72.8914 64.7113 72.7348 64.7113C72.5781 64.7113 72.4377 64.7482 72.299 64.822C72.1652 64.8958 72.0542 65.0017 71.9693 65.1428C71.8877 65.2824 71.8469 65.4476 71.8469 65.6385C71.8469 65.8293 71.8877 65.9962 71.9693 66.1389C72.0542 66.2785 72.1635 66.3859 72.299 66.4597C72.4361 66.5335 72.5814 66.5704 72.7348 66.5704C72.8882 66.5704 73.0351 66.5335 73.1705 66.4597C73.3076 66.3827 73.4186 66.2721 73.5002 66.1293C73.5851 65.9849 73.6275 65.8181 73.6275 65.6288ZM71.8502 64.668C71.953 64.5413 72.0917 64.4338 72.2696 64.3472C72.4459 64.2606 72.6466 64.2173 72.8686 64.2173C73.1232 64.2173 73.355 64.2782 73.5639 64.3969C73.776 64.514 73.9425 64.6793 74.0633 64.8926C74.184 65.1059 74.2444 65.3513 74.2444 65.6288C74.2444 65.9063 74.184 66.155 74.0633 66.3747C73.9425 66.5913 73.776 66.7613 73.5639 66.8848C73.355 67.0051 73.1232 67.0645 72.8686 67.0645C72.645 67.0645 72.4475 67.0227 72.2745 66.9393C72.1015 66.8527 71.9595 66.7453 71.8502 66.6185V68.3316H71.2447V64.2606H71.8502V64.6664V64.668Z" fill="#646464"/>
<path d="M77.4041 65.6385C77.4041 65.4476 77.3617 65.2824 77.2768 65.1428C77.1952 65.0033 77.0875 64.8958 76.9537 64.822C76.8199 64.7482 76.6746 64.7113 76.5179 64.7113C76.3612 64.7113 76.2176 64.7482 76.0822 64.822C75.9483 64.8926 75.839 64.9969 75.7525 65.138C75.6709 65.2743 75.6301 65.438 75.6301 65.6288C75.6301 65.8197 75.6709 65.9865 75.7525 66.1293C75.8373 66.2737 75.9467 66.3827 76.0822 66.4597C76.2209 66.5335 76.3645 66.5704 76.5179 66.5704C76.6713 66.5704 76.8182 66.5335 76.9537 66.4597C77.0875 66.3859 77.1952 66.2801 77.2768 66.1389C77.3617 65.9962 77.4041 65.8293 77.4041 65.6385ZM75.0115 65.6288C75.0115 65.3513 75.0719 65.1059 75.191 64.8926C75.3151 64.6793 75.4816 64.514 75.6905 64.3969C75.9026 64.2766 76.136 64.2173 76.3906 64.2173C76.6207 64.2173 76.8199 64.2606 76.9896 64.3472C77.1626 64.4306 77.3013 64.5365 77.4041 64.6632V64.2622H78.0145V67.0211H77.4041V66.6105C77.3013 66.7404 77.161 66.8495 76.9847 66.9361C76.8084 67.0227 76.606 67.0661 76.3792 67.0661C76.1279 67.0661 75.8977 67.0067 75.6888 66.8864C75.4799 66.7629 75.3135 66.5929 75.1894 66.3763C75.0686 66.1566 75.0099 65.9079 75.0099 65.6304" fill="#646464"/>
<path d="M80.6552 64.2173C80.8853 64.2173 81.091 64.2622 81.2705 64.352C81.4549 64.4418 81.5969 64.575 81.6997 64.753C81.8025 64.9295 81.8531 65.1428 81.8531 65.3946V67.0228H81.2542V65.4797C81.2542 65.2326 81.1889 65.0434 81.0583 64.9134C80.9278 64.7803 80.7482 64.7129 80.523 64.7129C80.2978 64.7129 80.1166 64.7803 79.9812 64.9134C79.8506 65.0434 79.7853 65.2326 79.7853 65.4797V67.0228H79.1798V64.2638H79.7853V64.5798C79.8849 64.4659 80.0105 64.3777 80.1623 64.3151C80.3174 64.2526 80.4822 64.2205 80.6552 64.2205" fill="#646464"/>
<path d="M85.6281 64.2622L83.8345 68.3172H83.2094L83.8035 66.9762L82.6512 64.2622H83.3253L84.1479 66.3651L85.0031 64.2622H85.6281Z" fill="#646464"/>
<path d="M7.5271 27.0806H0V55.5715H7.5271V27.0806Z" fill="#D78022"/>
<path d="M30.5866 55.5715V39.6065C30.5866 34.5875 29.1341 32.0788 26.229 32.0788C24.7324 32.0788 23.5002 32.8583 22.5323 34.4159C21.5645 35.9301 21.0798 37.8982 21.0798 40.3219V55.5731H13.5527V33.508C13.5527 31.9938 13.5315 30.7394 13.4874 29.7433C13.4434 28.7488 13.3993 27.8618 13.3552 27.0822H20.4857C20.5298 27.4287 20.5967 28.3366 20.6832 29.8075C20.8154 31.2351 20.8807 32.2296 20.8807 32.7926H20.946C21.8697 30.6287 23.0154 29.0504 24.3798 28.0543C25.7883 27.0598 27.4612 26.5625 29.3968 26.5625C33.8426 26.5625 36.5273 28.6397 37.4511 32.7926H37.5833C38.5511 30.5854 39.718 29.0071 41.0824 28.0543C42.4909 27.0598 44.2519 26.5625 46.3638 26.5625C49.1808 26.5625 51.3367 27.5137 52.8333 29.4177C54.3299 31.2784 55.0774 33.9828 55.0774 37.5293V55.5715H47.5503V39.6065C47.5503 34.5875 46.0978 32.0788 43.1927 32.0788C41.7402 32.0788 40.5292 32.7926 39.5614 34.2202C38.6376 35.6045 38.1317 37.5293 38.0435 39.9963V55.5715H30.5833H30.5866Z" fill="#D78022"/>
<path d="M72.6891 56.0912C68.2874 56.0912 64.8764 54.8144 62.456 52.2624C60.0797 49.6671 58.8916 46.0756 58.8916 41.4897C58.8916 36.9037 60.1026 33.1182 62.5229 30.5213C64.9433 27.8826 68.3543 26.5625 72.756 26.5625C76.1458 26.5625 78.9628 27.4062 81.2069 29.0937C83.4509 30.7811 84.8594 33.1166 85.4323 36.1033L77.8399 36.4273C77.6196 34.9564 77.0924 33.8095 76.2552 32.9883C75.4195 32.1221 74.2085 31.6906 72.6238 31.6906C68.7509 31.6906 66.8136 34.8714 66.8136 41.2314C66.8136 47.5914 68.795 51.0738 72.756 51.0305C74.1645 51.0305 75.3526 50.5974 76.3204 49.7328C77.2883 48.8249 77.8823 47.5048 78.1027 45.7741L85.6298 46.0981C85.3654 48.0454 84.6619 49.797 83.5162 51.3545C82.3721 52.8687 80.8527 54.0365 78.9611 54.8593C77.112 55.6806 75.0213 56.0928 72.6891 56.0928" fill="#D78022"/>
<path fill-rule="evenodd" clip-rule="evenodd" d="M58.6941 27.6002C58.7365 27.9691 58.2665 28.1825 58.0331 27.8905C50.173 18.0096 63.0876 12.7259 61.8897 0.775857C61.8489 0.365224 62.4315 0.158303 62.6257 0.524023C68.4947 11.6737 57.3346 15.6228 58.6957 27.6002" fill="#D78022"/>
<path fill-rule="evenodd" clip-rule="evenodd" d="M52.2931 22.323C52.316 22.6935 51.8394 22.8988 51.6256 22.5925C48.0546 17.498 54.2059 14.5065 54.2075 8.49616C54.2075 8.08232 54.8081 7.88663 54.9681 8.26999C57.3085 13.8472 51.9292 16.218 52.2931 22.323Z" fill="#D78022"/>
</svg>
