<svg width="99" height="12" viewBox="0 0 99 12" fill="none" xmlns="http://www.w3.org/2000/svg">
<path d="M39.2499 0.854686H37.2048V11.5833H39.2499V0.854686Z" fill="#1A1A1A"/>
<path d="M52.792 5.22687C50.9851 5.01729 50.2484 4.54361 50.2484 3.5902C50.2484 2.63678 51.1068 2.13403 52.6036 2.13403C54.1004 2.13403 55.0359 2.68645 55.0359 3.64956V3.75617H56.9841V3.64956C56.9841 1.78756 55.2727 0.583374 52.6232 0.583374C49.9737 0.583374 48.1654 1.80331 48.1654 3.61927C48.1654 5.43524 49.5628 6.44922 52.4374 6.74482C54.489 6.9544 55.2884 7.42202 55.2884 8.41177C55.2884 9.40153 54.3451 10.0169 52.7017 10.0169C51.0583 10.0169 49.9789 9.39911 49.9789 8.36574V8.25913H47.9731V8.36574C47.9731 10.3198 49.8284 11.5821 52.7017 11.5821C55.575 11.5821 57.3727 10.3319 57.3727 8.39602C57.3727 6.59339 55.9178 5.58667 52.7933 5.22566L52.792 5.22687Z" fill="#1A1A1A"/>
<path d="M93.0465 0.855913L93.0152 0.79534H92.1359L86.6419 11.3701L86.6314 11.5833H88.751L89.8069 9.44631L92.5677 4.21406L95.4658 9.74191L96.3607 11.5833H98.5V11.4173L93.0465 0.855913Z" fill="#1A1A1A"/>
<path d="M27.5946 4.28188C27.5946 2.20061 25.844 0.854686 23.1369 0.854686H18.6019V2.37506H23.0793C24.6127 2.37506 25.4933 3.07528 25.4933 4.29642C25.4933 5.51756 24.6206 6.24807 23.0989 6.24807H18.6019V11.5833H20.6469V7.75269H23.1159L25.9722 11.5833H28.1546V11.3822L25.1518 7.45831C26.6853 6.92285 27.5946 5.7441 27.5946 4.28067V4.28188Z" fill="#1A1A1A"/>
<path d="M68.4667 8.59111H66.4217V11.5834H68.4667V8.59111Z" fill="#1A1A1A"/>
<path d="M78.6016 8.59111H76.5566V11.5834H78.6016V8.59111Z" fill="#1A1A1A"/>
<path d="M77.7577 0.824474L72.5018 6.35838L67.28 0.860817L67.246 0.824474H66.4217V7.20761H68.468L68.4497 4.71444L72.3383 8.76917L72.3723 8.8043H72.6497L76.5566 4.71929V7.22578H78.6017V0.824474H77.7577Z" fill="#1A1A1A"/>
<path d="M4.78374 0.854686H0.5V11.5833H2.54505V2.37506H4.74579C6.43757 2.37506 7.44897 3.14918 7.44897 4.44664C7.44897 5.7441 6.43888 6.51822 4.74579 6.51822H4.24075V8.05313H4.78374C7.63477 8.05313 9.55028 6.59818 9.55028 4.4321C9.55028 2.26603 7.63477 0.854686 4.78374 0.854686Z" fill="#1A1A1A"/>
</svg>
