<svg width="168" height="13" viewBox="0 0 168 13" fill="none" xmlns="http://www.w3.org/2000/svg">
<path d="M108.75 0.771366H106.705V11.5H108.75V0.771366Z" fill="#FAFAFA"/>
<path d="M122.292 5.1435C120.485 4.93392 119.748 4.46024 119.748 3.50683C119.748 2.55342 120.607 2.05066 122.104 2.05066C123.6 2.05066 124.536 2.60308 124.536 3.56619V3.6728H126.484V3.56619C126.484 1.70419 124.773 0.5 122.123 0.5C119.474 0.5 117.665 1.71993 117.665 3.5359C117.665 5.35187 119.063 6.36586 121.937 6.66145C123.989 6.87104 124.788 7.33866 124.788 8.32842C124.788 9.31817 123.845 9.93359 122.202 9.93359C120.558 9.93359 119.479 9.31575 119.479 8.28238V8.17577H117.473V8.28238C117.473 10.2365 119.328 11.4988 122.202 11.4988C125.075 11.4988 126.873 10.2486 126.873 8.31267C126.873 6.51002 125.418 5.50331 122.293 5.14229L122.292 5.1435Z" fill="#FAFAFA"/>
<path d="M162.547 0.772577L162.515 0.712004H161.636L156.142 11.2868L156.131 11.5H158.251L159.307 9.363L162.068 4.13073L164.966 9.65859L165.861 11.5H168V11.334L162.547 0.772577Z" fill="#FAFAFA"/>
<path d="M97.0946 4.19857C97.0946 2.11729 95.3439 0.771366 92.6368 0.771366H88.1019V2.29174H92.5792C94.1127 2.29174 94.9933 2.99196 94.9933 4.21311C94.9933 5.43425 94.1206 6.16476 92.5989 6.16476H88.1019V11.5H90.1469V7.66938H92.6159L95.4721 11.5H97.6546V11.2989L94.6518 7.375C96.1852 6.83954 97.0946 5.66201 97.0946 4.19857Z" fill="#FAFAFA"/>
<path d="M137.967 8.50771H135.922V11.5H137.967V8.50771Z" fill="#FAFAFA"/>
<path d="M148.102 8.50771H146.057V11.5H148.102V8.50771Z" fill="#FAFAFA"/>
<path d="M147.258 0.74108L142.002 6.275L136.78 0.777423L136.746 0.74108H135.922V7.12423H137.968L137.95 4.63106L141.838 8.68579L141.872 8.72093H142.15L146.057 4.6359V7.1424H148.102V0.74108H147.258Z" fill="#FAFAFA"/>
<path d="M74.2837 0.771366H70V11.5H72.045V2.29174H74.2458C75.9376 2.29174 76.949 3.06586 76.949 4.36333C76.949 5.66079 75.9389 6.43491 74.2458 6.43491H73.7407V7.96982H74.2837C77.1348 7.96982 79.0503 6.51487 79.0503 4.34879C79.0503 2.18271 77.1348 0.771366 74.2837 0.771366Z" fill="#FAFAFA"/>
<path d="M0 10.0556V1.5H3.20947C3.75852 1.5 4.23893 1.61815 4.65071 1.85444C5.06249 2.08259 5.37738 2.40037 5.59539 2.80778C5.82146 3.21519 5.9345 3.67556 5.9345 4.18889C5.9345 4.70222 5.82146 5.16259 5.59539 5.57C5.37738 5.97741 5.06249 6.29926 4.65071 6.53556C4.23893 6.7637 3.75852 6.87778 3.20947 6.87778H1.02945V10.0556H0ZM3.14892 5.96111C3.68989 5.96111 4.11782 5.79815 4.43271 5.47222C4.7476 5.1463 4.90505 4.71852 4.90505 4.18889C4.90505 3.65926 4.7476 3.23148 4.43271 2.90556C4.11782 2.57963 3.68989 2.41667 3.14892 2.41667H1.02945V5.96111H3.14892Z" fill="#AEAEAE"/>
<path d="M9.38856 10.1778C8.8153 10.1778 8.31066 10.0515 7.87466 9.79889C7.43866 9.53815 7.0955 9.16333 6.84521 8.67444C6.60298 8.17741 6.48187 7.57852 6.48187 6.87778C6.48187 6.17704 6.60298 5.58222 6.84521 5.09333C7.0955 4.5963 7.43866 4.22148 7.87466 3.96889C8.31066 3.70815 8.8153 3.57778 9.38856 3.57778C9.96183 3.57778 10.4665 3.70815 10.9025 3.96889C11.3385 4.22148 11.6776 4.5963 11.9198 5.09333C12.1701 5.58222 12.2953 6.17704 12.2953 6.87778C12.2953 7.57852 12.1701 8.17741 11.9198 8.67444C11.6776 9.16333 11.3385 9.53815 10.9025 9.79889C10.4665 10.0515 9.96183 10.1778 9.38856 10.1778ZM9.38856 9.32222C9.98605 9.32222 10.4665 9.11037 10.8298 8.68667C11.2012 8.25482 11.3869 7.65185 11.3869 6.87778C11.3869 6.1037 11.2012 5.50482 10.8298 5.08111C10.4665 4.64926 9.98605 4.43333 9.38856 4.43333C8.79108 4.43333 8.30663 4.64926 7.93522 5.08111C7.57188 5.50482 7.39021 6.1037 7.39021 6.87778C7.39021 7.65185 7.57188 8.25482 7.93522 8.68667C8.30663 9.11037 8.79108 9.32222 9.38856 9.32222Z" fill="#AEAEAE"/>
<path d="M15.8355 10.0556H14.7213L12.9652 3.7H13.8735L15.2663 8.83333H15.3268L16.756 3.7H17.7128L19.1419 8.83333H19.2024L20.5952 3.7H21.5036L19.7474 10.0556H18.6332L17.2646 5.10556H17.2041L15.8355 10.0556Z" fill="#AEAEAE"/>
<path d="M27.8572 6.57222C27.8572 6.79222 27.837 6.99593 27.7967 7.18333H23.0854C23.1339 7.87593 23.3317 8.40556 23.6789 8.77222C24.0341 9.13889 24.4984 9.32222 25.0716 9.32222C25.7983 9.32222 26.3433 9.01667 26.7067 8.40556H27.6756C27.4656 8.97593 27.1306 9.41593 26.6703 9.72556C26.2182 10.027 25.6853 10.1778 25.0716 10.1778C24.4984 10.1778 23.9937 10.0515 23.5577 9.79889C23.1217 9.53815 22.7786 9.16333 22.5283 8.67444C22.2861 8.17741 22.165 7.57852 22.165 6.87778C22.165 6.18518 22.2861 5.59037 22.5283 5.09333C22.7705 4.5963 23.1056 4.22148 23.5335 3.96889C23.9695 3.70815 24.4621 3.57778 25.0111 3.57778C25.6247 3.57778 26.1455 3.72852 26.5734 4.03C27.0014 4.33148 27.3203 4.71444 27.5302 5.17889C27.7482 5.63519 27.8572 6.09963 27.8572 6.57222ZM26.9368 6.32778C26.8883 5.79 26.6986 5.34185 26.3675 4.98333C26.0446 4.61667 25.5924 4.43333 25.0111 4.43333C24.4459 4.43333 24.0059 4.60444 23.691 4.94667C23.3761 5.28889 23.1823 5.74926 23.1096 6.32778H26.9368Z" fill="#AEAEAE"/>
<path d="M29.2448 10.0556V3.7H29.9715L30.0926 4.55556H30.1532C30.3308 4.25407 30.5569 4.03815 30.8314 3.90778C31.1059 3.76926 31.445 3.7 31.8487 3.7H32.5148V4.55556H31.8487C31.3643 4.55556 30.9606 4.7063 30.6376 5.00778C30.3146 5.30926 30.1532 5.68815 30.1532 6.14444V10.0556H29.2448Z" fill="#AEAEAE"/>
<path d="M38.5728 6.57222C38.5728 6.79222 38.5526 6.99593 38.5123 7.18333H33.801C33.8494 7.87593 34.0473 8.40556 34.3945 8.77222C34.7497 9.13889 35.214 9.32222 35.7872 9.32222C36.5139 9.32222 37.0589 9.01667 37.4223 8.40556H38.3912C38.1812 8.97593 37.8462 9.41593 37.3859 9.72556C36.9338 10.027 36.4009 10.1778 35.7872 10.1778C35.214 10.1778 34.7093 10.0515 34.2733 9.79889C33.8373 9.53815 33.4942 9.16333 33.2439 8.67444C33.0017 8.17741 32.8806 7.57852 32.8806 6.87778C32.8806 6.18518 33.0017 5.59037 33.2439 5.09333C33.4861 4.5963 33.8212 4.22148 34.2491 3.96889C34.6851 3.70815 35.1776 3.57778 35.7267 3.57778C36.3403 3.57778 36.8611 3.72852 37.289 4.03C37.717 4.33148 38.0359 4.71444 38.2458 5.17889C38.4638 5.63519 38.5728 6.09963 38.5728 6.57222ZM37.6524 6.32778C37.6039 5.79 37.4142 5.34185 37.0831 4.98333C36.7602 4.61667 36.308 4.43333 35.7267 4.43333C35.1615 4.43333 34.7215 4.60444 34.4066 4.94667C34.0917 5.28889 33.8979 5.74926 33.8252 6.32778H37.6524Z" fill="#AEAEAE"/>
<path d="M42.3827 10.1778C41.8498 10.1778 41.3774 10.0515 40.9656 9.79889C40.5619 9.53815 40.243 9.15926 40.0089 8.66222C39.7747 8.16519 39.6576 7.57037 39.6576 6.87778C39.6576 6.18518 39.7747 5.59037 40.0089 5.09333C40.243 4.5963 40.5619 4.22148 40.9656 3.96889C41.3774 3.70815 41.8498 3.57778 42.3827 3.57778C42.8187 3.57778 43.2062 3.65926 43.5453 3.82222C43.8844 3.98519 44.163 4.20926 44.381 4.49444H44.4416V1.5H45.3499V10.0556H44.6232L44.5021 9.2H44.4416C44.2236 9.50963 43.9369 9.75 43.5817 9.92111C43.2345 10.0922 42.8348 10.1778 42.3827 10.1778ZM42.5038 9.32222C43.0932 9.32222 43.5615 9.11037 43.9087 8.68667C44.2639 8.25482 44.4416 7.65185 44.4416 6.87778C44.4416 6.09556 44.2639 5.49259 43.9087 5.06889C43.5615 4.64519 43.0932 4.43333 42.5038 4.43333C41.9144 4.43333 41.442 4.64519 41.0868 5.06889C40.7396 5.49259 40.566 6.09556 40.566 6.87778C40.566 7.65185 40.7396 8.25482 41.0868 8.68667C41.442 9.11037 41.9144 9.32222 42.5038 9.32222Z" fill="#AEAEAE"/>
<path d="M52.7931 10.1778C52.341 10.1778 51.9372 10.0922 51.582 9.92111C51.2348 9.75 50.9522 9.50963 50.7342 9.2H50.6736L50.5525 10.0556H49.8259V1.5H50.7342V4.49444H50.7948C51.0128 4.20926 51.2913 3.98519 51.6304 3.82222C51.9695 3.65926 52.3571 3.57778 52.7931 3.57778C53.326 3.57778 53.7943 3.70815 54.198 3.96889C54.6098 4.22148 54.9328 4.5963 55.1669 5.09333C55.4011 5.59037 55.5181 6.18518 55.5181 6.87778C55.5181 7.57037 55.4011 8.16519 55.1669 8.66222C54.9328 9.15926 54.6098 9.53815 54.198 9.79889C53.7943 10.0515 53.326 10.1778 52.7931 10.1778ZM52.672 9.32222C53.2614 9.32222 53.7297 9.11037 54.0769 8.68667C54.4322 8.25482 54.6098 7.65185 54.6098 6.87778C54.6098 6.09556 54.4322 5.49259 54.0769 5.06889C53.7297 4.64519 53.2614 4.43333 52.672 4.43333C52.0826 4.43333 51.6102 4.64519 51.255 5.06889C50.9078 5.49259 50.7342 6.09556 50.7342 6.87778C50.7342 7.65185 50.9078 8.25482 51.255 8.68667C51.6102 9.11037 52.0826 9.32222 52.672 9.32222Z" fill="#AEAEAE"/>
<path d="M58.5483 12.5H57.5794L58.5483 10.0556L55.9444 3.7H56.9133L58.9964 8.77222H59.057L61.0311 3.7H62L58.5483 12.5Z" fill="#AEAEAE"/>
</svg>
